<?xml version="1.0"?>
<svg xmlns="http://www.w3.org/2000/svg" xmlns:xlink="http://www.w3.org/1999/xlink" version="1.1" id="Capa_1" x="0px" y="0px" viewBox="0 0 512 512" style="enable-background:new 0 0 512 512;" xml:space="preserve" width="512px" height="512px" class=""><g><g>
	<g>
		<path d="M173.716,268.71v-62.366c0-0.582-0.474-1.055-1.056-1.055H99.165c-0.582,0-1.056,0.473-1.056,1.055v62.366l7.792,15.582    c2.112,4.224,2.112,9.194,0,13.417l-7.792,15.584v62.365c0,0.583,0.474,1.056,1.056,1.056h73.495c0.582,0,1.056-0.474,1.056-1.056    v-62.365l-7.792-15.584c-2.112-4.223-2.112-9.193,0-13.417L173.716,268.71z M145.434,306.001h-19.042c-8.284,0-15-6.716-15-15    s6.715-15,15-15h19.042c8.284,0,15,6.716,15,15S153.718,306.001,145.434,306.001z" data-original="#000000" class="active-path" fill="#000000"/>
	</g>
</g><g>
	<g>
		<path d="M413.891,268.71v-62.366c0-0.582-0.474-1.055-1.056-1.055H339.34c-0.582,0-1.056,0.473-1.056,1.055v62.366l7.792,15.582    c2.112,4.224,2.112,9.194,0,13.417l-7.792,15.584v62.365c0,0.583,0.474,1.056,1.056,1.056h73.495c0.582,0,1.056-0.474,1.056-1.056    v-62.365l-7.792-15.584c-2.112-4.223-2.112-9.193,0-13.417L413.891,268.71z M385.608,306.001h-19.042c-8.284,0-15-6.716-15-15    s6.716-15,15-15h19.042c8.284,0,15,6.716,15,15S393.892,306.001,385.608,306.001z" data-original="#000000" class="active-path" fill="#000000"/>
	</g>
</g><g>
	<g>
		<path d="M0,131.487v311.162c0,24.813,20.187,45,45,45h422c24.813,0,45-20.187,45-45V131.487H0z M203.716,272.251    c0,2.329-0.542,4.626-1.584,6.709l-6.021,12.041l6.021,12.042c1.042,2.083,1.584,4.38,1.584,6.709v65.906    c0,17.124-13.932,31.056-31.056,31.056H99.165c-17.124,0-31.056-13.932-31.056-31.056v-65.906c0-2.329,0.542-4.626,1.584-6.709    l6.021-12.042l-6.021-12.041c-1.042-2.083-1.584-4.38-1.584-6.709v-65.907c0-17.124,13.932-31.055,31.056-31.055h73.495    c17.124,0,31.056,13.931,31.056,31.055V272.251z M268.388,408.431c0,8.284-6.716,15-15,15s-15-6.716-15-15V173.557    c0-8.284,6.716-15,15-15s15,6.716,15,15V408.431z M443.891,272.251c0,2.329-0.542,4.626-1.584,6.709l-6.021,12.041l6.021,12.042    c1.042,2.083,1.584,4.38,1.584,6.709v65.906c0,17.124-13.932,31.056-31.056,31.056H339.34c-17.124,0-31.056-13.932-31.056-31.056    v-65.906c0-2.329,0.542-4.626,1.584-6.709l6.021-12.042l-6.021-12.041c-1.042-2.083-1.584-4.38-1.584-6.709v-65.907    c0-17.124,13.932-31.055,31.056-31.055h73.495c17.124,0,31.056,13.931,31.056,31.055V272.251z" data-original="#000000" class="active-path" fill="#000000"/>
	</g>
</g><g>
	<g>
		<path d="M467,24.351H45c-24.813,0-45,20.187-45,45v32.136h512V69.351C512,44.538,491.813,24.351,467,24.351z" data-original="#000000" class="active-path" fill="#000000"/>
	</g>
</g></g> </svg>
